<?xml version="1.0" encoding="UTF-8" standalone="no"?><!DOCTYPE svg PUBLIC "-//W3C//DTD SVG 1.1//EN" "http://www.w3.org/Graphics/SVG/1.1/DTD/svg11.dtd"><svg width="100%" height="100%" viewBox="0 0 1384 715" version="1.1" xmlns="http://www.w3.org/2000/svg" xmlns:xlink="http://www.w3.org/1999/xlink" xml:space="preserve" xmlns:serif="http://www.serif.com/" style="fill-rule:evenodd;clip-rule:evenodd;stroke-linejoin:round;stroke-miterlimit:2;"><rect id="ArtBoard1" x="0" y="0" width="1383.558" height="714.051" style="fill:none;"/><g id="APP"><path d="M622.228,157.031c4.15,-0.358 7.621,1.032 10.417,4.167c2.083,40.254 2.083,120.833 2.083,120.833l62.213,0.505c0,0 51.045,52.332 75.287,78.662c2.94,7.374 -4.391,7.495 -4.391,7.495c0,0 -88.643,1.534 -133.109,0.838l0,120.833c-11,-1.892 -20.721,-6.754 -29.167,-14.583c-23.242,-20.446 -60.293,-69.634 -60.427,-71.792c-0.438,-7.084 -0.122,-36.524 -0.122,-36.524l-47.785,-0.017l-88.2,-85.417l134.034,0c-2.112,-19.254 1.358,-37.309 10.417,-54.167c20.962,-25.821 43.879,-49.432 68.75,-70.833Zm-536.914,-87.5c1.419,-0.039 462.532,-0.02 499.817,-0.018c1.571,0 -16.238,17.865 -22.734,25.018c-108.783,117.121 -220.587,231.704 -335.417,343.75c-3.663,3.574 -10.867,2.55 -10.796,-3.028c0.651,-51.633 0.379,-149.055 0.379,-149.055c0,0 72.35,-72.346 106.25,-110.417c-38.863,-2.082 -77.753,-2.777 -116.667,-2.083c0.653,129.444 -0.343,338.781 -1.818,408.125c-0.075,3.535 -3.499,7.751 -7.029,7.943c-19.836,1.076 -91.756,-0.81 -111.986,-1.484c-2.945,-0.098 -6.214,-3.304 -6.25,-6.25c-1.042,-85.069 -1.042,-418.75 0,-504.167c0.042,-3.472 0.403,-8.175 6.25,-8.333Zm585.056,520.183c-51.963,1.211 -103.926,0.733 -155.89,-1.433c-71.004,-69.613 -140.45,-140.446 -208.333,-212.5c19.254,-23.429 40.087,-45.65 62.5,-66.667c5.554,-2.779 11.113,-2.779 16.667,0c67.479,68.871 285.056,280.6 285.056,280.6Zm21.409,-189.684c45.597,-0.475 91.184,0 136.761,1.425l64.107,64.107c1.425,67.424 1.899,134.855 1.425,202.292l-68.381,0l0,-65.531l-65.531,0l0,65.531l-68.381,0l0,-267.824Zm68.381,68.381l0,65.531l65.531,0l0,-65.531l-65.531,0Zm356.149,82.626l-67.849,0.713l0.36,-83.117l-66.423,-0.223l-0.159,19.628l62.524,63.316l-62.365,-0.317l-0.632,111.118c0,0 -46.28,-39.311 -66.324,-59.833c-1.425,-67.424 -1.899,-134.855 -1.425,-202.292c45.596,-0.475 136.761,1.425 136.761,1.425l64.107,64.107l1.425,85.476Zm222.237,0l-65.531,0l0.001,-82.626l-68.381,0l0.475,19.311l60.624,62.999l-61.099,0.316l-0.632,111.118c0,0 -46.28,-39.311 -66.324,-59.833c-1.425,-67.424 -1.9,-134.855 -1.425,-202.292c45.596,-0.475 91.183,0 136.761,1.425l64.107,64.107c1.425,28.476 1.898,56.968 1.425,85.476Z" style="fill:#f9faf9;"/><path d="M479.056,241.615l26.31,0c2.625,-11.292 6.797,-22.252 12.509,-32.881c1.205,-2.243 2.62,-4.367 4.224,-6.343c22.491,-27.703 47.082,-53.033 73.766,-75.995c6.431,-5.534 14.44,-8.904 22.893,-9.632c17.537,-1.511 32.235,4.285 44.049,17.534c6.125,6.868 9.723,15.621 10.199,24.812c1.144,22.105 1.676,56.165 1.923,82.831l22.339,0.181c10.78,0.088 21.077,4.478 28.604,12.194c0,0 51.587,52.896 76.088,79.507c3.337,3.625 5.984,7.829 7.809,12.405l3.293,14.35c5.58,0.146 11.16,0.307 16.74,0.481c10.277,0.321 20.046,4.547 27.316,11.818l17.613,17.613c4.256,-17.583 20.004,-30.677 38.863,-30.874c46.016,-0.479 138.024,1.431 138.024,1.431c10.425,0.217 20.364,4.455 27.737,11.829l17.613,17.613c4.256,-17.583 20.004,-30.677 38.863,-30.874c46.157,-0.481 92.305,0 138.444,1.442c10.277,0.321 20.046,4.547 27.317,11.818l64.107,64.107c7.086,7.086 11.287,16.551 11.787,26.559c1.469,29.372 1.957,58.761 1.47,88.166c-0.366,22.057 -18.351,39.746 -40.411,39.746l-65.531,0c-1.811,0 -3.61,-0.122 -5.386,-0.36c-0.56,0.026 -1.123,0.041 -1.687,0.044l-21.119,0.109l-0.405,71.139c-0.089,15.709 -9.274,29.944 -23.55,36.5c-14.276,6.556 -31.058,4.245 -43.031,-5.926c0,0 -48.185,-41.011 -69.072,-62.396c-7.168,-7.339 -11.278,-17.13 -11.494,-27.387l-0.238,-11.722l-46.254,0l-0.877,-0.009c-1.756,0.225 -3.541,0.335 -5.344,0.326l-21.973,-0.112l-0.402,70.727c-0.089,15.709 -9.274,29.944 -23.55,36.5c-14.276,6.556 -31.058,4.245 -43.031,-5.926c0,0 -9.359,-7.965 -21.615,-18.706c-3.07,19.294 -19.782,34.017 -39.912,34.017l-68.381,0c-13.483,0 -25.423,-6.602 -32.766,-16.749c-7.342,10.147 -19.283,16.749 -32.766,16.749l-68.381,0c-22.322,0 -40.417,-18.095 -40.417,-40.417l-0,-37.351c-46.188,0.698 -92.377,0.085 -138.565,-1.841c-9.99,-0.416 -19.471,-4.521 -26.611,-11.521c-64.121,-62.865 -126.979,-126.72 -188.569,-191.565c-14.091,13.916 -28.227,27.793 -42.41,41.632l-9.187,6.475c-0.344,46.576 -0.787,85.681 -1.282,108.999l-2.741,14.829l-9.238,15.885l-6.773,6.524l-9.104,5.716l-17.391,4.487c-20.462,1.11 -94.654,-0.752 -115.523,-1.447l-15.81,-3.423l-15.542,-10.354l-10.603,-15.854l-3.362,-16.519c-1.044,-85.236 -1.044,-419.57 -0,-505.154c0.068,-5.565 0.916,-11.875 2.873,-17.465l7.456,-13.547l7.494,-7.435l9.295,-5.625l18.449,-4.17c1.422,-0.039 463.548,-0.034 500.916,-0.033l12.742,2.053l10.888,5.545l8.272,7.934l5.494,9.388l3.066,17.592l-1.951,10.594l-4.056,8.809c-2.212,3.64 -20.081,22.773 -27.273,30.691l-0.306,0.333c-37.298,40.157 -74.949,80.016 -112.955,119.578Zm293.171,119.583c-0.44,-0.478 -75.287,-78.662 -75.287,-78.662l-62.213,-0.505c0,0 0,-80.58 -2.083,-120.833c-2.796,-3.135 -6.267,-4.524 -10.417,-4.167c-24.871,21.402 -47.788,45.012 -68.75,70.833c-9.058,16.858 -12.529,34.913 -10.417,54.167l-134.034,-0l88.2,85.417l47.785,0.017c0,0 -0.316,29.44 0.122,36.524c0.133,2.158 37.185,51.346 60.427,71.792c8.446,7.829 18.167,12.692 29.167,14.583l0,-120.833c44.467,0.696 133.109,-0.838 133.109,-0.838c0,0 7.331,-0.121 4.391,-7.495Zm566.317,189.84c0.473,-28.508 0,-57 -1.425,-85.476l-64.107,-64.107c-45.578,-1.424 -91.165,-1.899 -136.761,-1.425c-0.476,67.437 0,134.868 1.425,202.292c20.044,20.522 66.324,59.833 66.324,59.833l0.632,-111.118l61.099,-0.316l-60.624,-62.999l-0.475,-19.311l68.381,0l-0.001,82.626l65.531,0Zm-668.175,38.677c0,0 -217.577,-211.729 -285.056,-280.6c-5.554,-2.779 -11.113,-2.779 -16.667,0c-22.413,21.017 -43.246,43.238 -62.5,66.667c67.883,72.054 137.329,142.887 208.333,212.5c51.963,2.166 103.926,2.644 155.89,1.433Zm-585.056,-520.183c-5.847,0.159 -6.208,4.861 -6.25,8.333c-1.042,85.417 -1.042,419.097 0,504.167c0.036,2.946 3.305,6.152 6.25,6.25c20.23,0.674 92.15,2.561 111.986,1.484c3.53,-0.192 6.954,-4.408 7.029,-7.943c1.475,-69.345 2.471,-278.681 1.818,-408.125c38.914,-0.694 77.804,0.001 116.667,2.083c-33.9,38.07 -106.25,110.417 -106.25,110.417c0,0 0.272,97.423 -0.379,149.055c-0.07,5.579 7.133,6.602 10.796,3.028c114.829,-112.046 226.633,-226.629 335.417,-343.75c6.496,-7.153 24.305,-25.018 22.734,-25.018c-37.285,-0.002 -498.398,-0.021 -499.817,0.018Zm1030.994,481.506l-1.425,-85.476l-64.107,-64.107c0,0 -91.165,-1.899 -136.761,-1.425c-0.475,67.437 0,134.868 1.425,202.292c20.044,20.522 66.324,59.833 66.324,59.833l0.632,-111.118l62.365,0.317l-62.524,-63.316l0.159,-19.628l66.559,0.093l-0.496,82.533l67.849,0Zm-424.529,-151.007l0,267.824l68.381,0l0,-65.531l65.531,0l0,65.531l68.381,0c0.475,-67.437 0,-134.868 -1.425,-202.292l-64.107,-64.107c-45.577,-1.424 -91.164,-1.899 -136.761,-1.425Zm68.381,68.381l65.531,0l0,65.531l-65.531,0l0,-65.531Z" style="fill:url(#_Linear1);"/></g><defs><linearGradient id="_Linear1" x1="0" y1="0" x2="1" y2="0" gradientUnits="userSpaceOnUse" gradientTransform="matrix(1235.604453,625.107471,-296.428524,585.928695,0,0)"><stop offset="0" style="stop-color:#f64f59;stop-opacity:1"/><stop offset="0.4" style="stop-color:#af7bed;stop-opacity:1"/><stop offset="1" style="stop-color:#18bfe9;stop-opacity:1"/></linearGradient></defs></svg>